<svg xmlns="http://www.w3.org/2000/svg" width="500" height="500">
  <path 
    style="fill: #367cd2; stroke: #77a7e2;"
    d="M 250.001 11.078 C 242.695 11.078 232.429 23.81 223.793 45.162 C 216.811 62.424 207.853 89.122 199.141 94.788 C 184.143 104.542 145.897 113.646 122.897 118.05 C 109.781 120.562 83.319 128.62 72.119 148.022 C 62.379 164.894 58.969 223.45 59.045 248.028 C 59.191 295.504 57.683 390.256 57.683 390.256 C 57.683 390.256 72.615 357.678 76.629 342.512 C 84.155 314.078 83.333 286.29 84.785 257.824 C 85.653 240.83 86.773 219.878 93.061 206.34 C 97.317 197.174 106.003 193.036 115.531 189.454 C 126.805 185.216 150.609 179.528 177.351 183.002 C 194.083 185.176 208.981 196.592 213.629 209.162 C 217.633 219.986 220.147 240.868 221.557 256.954 C 222.771 270.786 222.827 292.548 219.943 300.618 C 214.761 315.112 198.859 346.406 185.745 392.628 C 178.139 419.432 166.665 461.21 163.867 474.8 C 162.537 481.256 160.947 494.352 160.947 494.352 C 160.947 494.352 168.275 482.048 171.469 475.646 C 177.067 464.43 181.531 452.682 186.577 441.208 C 196.339 419.01 205.139 396.686 215.771 375.64 C 221.131 365.03 229.357 350.816 238.653 343.41 C 240.883 341.634 245.461 340.712 250.041 340.678 C 254.629 340.642 259.221 341.498 261.453 343.276 C 270.749 350.682 278.975 364.896 284.335 375.506 C 294.967 396.552 303.767 418.876 313.529 441.074 C 318.575 452.548 323.039 464.296 328.637 475.512 C 331.831 481.914 339.159 494.218 339.159 494.218 C 339.159 494.218 337.569 481.122 336.239 474.666 C 333.441 461.076 321.967 419.298 314.361 392.494 C 301.247 346.272 285.345 314.978 280.163 300.484 C 277.279 292.414 277.335 270.652 278.549 256.82 C 279.959 240.734 282.473 219.852 286.477 209.028 C 291.125 196.458 306.023 185.042 322.755 182.868 C 349.497 179.394 373.301 185.082 384.575 189.32 C 394.103 192.902 402.789 197.04 407.045 206.206 C 413.333 219.744 414.453 240.696 415.321 257.69 C 416.773 286.156 415.951 313.944 423.477 342.378 C 427.491 357.544 447.795 394.332 447.795 394.332 C 447.795 394.332 445.277 375.114 443.723 347.956 C 441.891 315.958 440.983 273.574 441.061 247.894 C 441.137 223.316 437.727 164.76 427.987 147.888 C 416.787 128.486 390.325 120.428 377.209 117.916 C 354.209 113.512 315.963 104.408 300.965 94.654 C 292.253 88.988 283.295 62.29 276.313 45.028 C 267.671 23.662 257.275 11.078 250.001 11.078 Z"/>             <!-- Z命令闭合路径 -->
</svg>